<svg width="208" height="55" viewBox="0 0 208 55" fill="none" xmlns="http://www.w3.org/2000/svg">
<path fill-rule="evenodd" clip-rule="evenodd" d="M4.94577 0.017341L9.8862 0.0192941H25.2671L34.4731 0.017341L37.3423 0.0153879C37.7967 0.0153023 38.5895 -0.00369351 39.021 0.0417551C39.484 0.091144 39.9178 0.293465 40.2534 0.615974C40.4895 0.843657 40.7849 1.31995 40.8091 1.63258C40.8981 2.79792 40.8529 4.17711 40.852 5.3484L40.8501 13.6248L48.6782 13.6209L51.1372 13.615C51.9157 13.6128 52.8991 13.5165 53.562 13.9646C54.0126 14.2652 54.3201 14.7384 54.4126 15.2722C54.4724 15.6126 54.4555 16.3484 54.4555 16.7205L54.4536 19.0554V27.4763L54.4526 44.1668L54.4546 49.3972C54.4567 50.3885 54.4699 51.381 54.4468 52.3718C54.4205 53.4865 53.6839 54.2628 52.5893 54.3972C51.2173 54.4623 49.5134 54.4152 48.1186 54.4148H39.8813L16.2358 54.4187C15.3799 54.4157 14.8192 54.4224 14.1753 53.7703C13.4685 53.0551 13.5891 52.1084 13.5903 51.1775L13.5932 48.8904L13.6001 40.8503H5.83835C4.75352 40.8512 3.66626 40.8612 2.58249 40.8484C1.9158 40.8407 1.39169 40.814 0.831517 40.4197C-0.149714 39.7293 0.00889323 38.6833 0.0102275 37.6462L0.0141338 35.0271V9.81422L0.0131572 4.65894C0.0129433 3.78821 -0.0114129 2.9081 0.0160869 2.03883C0.0528957 0.875411 0.815762 0.191364 1.92234 0.0339426C2.87345 -0.0303458 3.9855 0.0162284 4.94577 0.017341ZM18.3335 13.6658C17.5488 13.6652 16.2017 13.6248 15.4497 13.6834C14.463 13.8712 13.7247 14.4847 13.6831 15.5496C13.6473 16.4688 13.6658 17.4018 13.6665 18.322L13.6694 23.5066L13.6626 40.7634L31.2173 40.7654L36.3872 40.7673C37.0021 40.7678 38.5742 40.8027 39.1352 40.7244C40.0647 40.5894 40.7565 39.807 40.7856 38.8689C40.8139 37.9547 40.8026 37.0408 40.8022 36.1257L40.8003 30.9578L40.8042 13.6707L23.8462 13.6668L18.3335 13.6658Z" fill="black"/>
<path d="M30.2297 29.4083C28.3425 31.0549 27.516 33.1937 27.2173 35.6105C27.0692 34.8835 26.9815 34.1809 26.775 33.5147C26.5649 32.8373 26.3029 32.1577 25.9435 31.549C25.5839 30.9399 25.1274 30.3647 24.6179 29.8719C24.1161 29.3865 23.5269 28.9667 22.9167 28.6219C22.2977 28.2721 21.6223 27.9977 20.9416 27.7852C20.2632 27.5733 19.5475 27.4791 18.832 27.33C19.1853 27.2815 19.5372 27.244 19.8852 27.1839C23.7205 26.5214 26.0235 24.2408 26.9565 20.5368C27.1017 19.9602 27.1589 19.3617 27.247 18.8325C27.6472 23.9228 30.5813 26.6376 35.61 27.3643C33.6259 27.5388 31.7926 28.0962 30.2297 29.4083Z" fill="#ED1B24"/>
<path d="M125.98 2.24451L125.975 11.5609C127.149 10.0067 128.425 9.13458 130.396 8.85974C135.348 8.16948 138.954 12.0161 139.403 16.7357C139.742 20.301 139.284 22.8837 137.055 25.7015C136.709 26.0825 136.325 26.4265 135.909 26.7289C133.803 28.2339 130.78 28.4879 128.432 27.392C127.205 26.8198 126.53 25.9957 125.773 24.9369L125.777 27.6263L121.513 27.6254L121.501 2.23669L125.98 2.24451ZM129.891 12.6107C129.359 12.7165 128.862 12.8336 128.371 13.0961C125.039 14.8806 125.054 21.5521 128.116 23.5668C129.104 24.2175 129.911 24.2749 131.05 24.2738C132.225 24.022 133.326 23.494 133.914 22.4037C135.902 18.7162 135.252 12.3839 129.891 12.6107Z" fill="black"/>
<path d="M75.2671 2.24451C77.1198 2.28216 79.0299 2.26326 80.8872 2.26697L90.3599 27.639L85.4419 27.64L83.2817 21.7992H81.3853L72.8384 21.8031L70.7954 27.6312H65.9976L75.2671 2.24451ZM74.2603 17.7386H78.3501L81.9019 17.7338C81.4815 16.5342 78.2758 7.10973 78.0112 6.80603L74.2603 17.7386Z" fill="black"/>
<path d="M99.9941 8.89655C103.05 8.56238 104.973 9.24151 106.593 11.9781C106.917 11.5147 107.242 11.036 107.631 10.6514C110.895 7.43049 117.463 8.4258 118.327 13.4523C118.703 15.6375 118.59 17.5098 118.589 19.6302L118.591 27.6234L114.155 27.6223C114.116 24.1491 114.192 20.6702 114.157 17.1891C114.19 15.0092 113.643 12.6441 110.958 12.6701C107.068 12.7078 107.312 17.3038 107.316 19.9367L107.328 23.958L107.321 27.6212L102.916 27.6279C102.87 25.0775 102.955 22.5417 102.918 19.9647C102.893 18.2099 103.197 14.9619 101.988 13.5488C100.838 12.3362 98.5261 12.3543 97.4282 13.5799C95.7335 15.4716 96.0765 18.3214 96.081 20.6921L96.1012 27.6291L91.6855 27.6257L91.6878 9.236L96.0423 9.23577L96.0369 11.6448C97.1241 9.99044 98.1044 9.35515 99.9941 8.89655Z" fill="black"/>
<path fill-rule="evenodd" clip-rule="evenodd" d="M177.298 8.91542C182.549 8.77083 186.926 12.9062 187.079 18.1576C187.231 23.4084 183.102 27.7917 177.852 27.9535C172.589 28.1151 168.193 23.9754 168.04 18.7123C167.886 13.4489 172.034 9.06042 177.298 8.91542ZM181.335 22.0297C183.24 18.2219 182.158 12.3293 176.899 12.6049C173.078 13.4233 172.459 17.2062 173.154 20.5101C173.69 23.0586 175.682 24.4937 178.283 24.2387C179.569 23.9015 180.723 23.2519 181.335 22.0297Z" fill="black"/>
<path d="M197.704 8.89227C202.287 8.4385 205.14 10.6252 205.327 15.3892C205.382 16.7895 205.347 18.2015 205.346 19.604L205.343 27.6302L200.851 27.6313L200.867 20.1734C200.87 17.4819 201.519 13.1565 198.064 12.7245C196.806 12.5673 196.043 12.8134 195.011 13.4931C193.014 15.3691 193.388 18.2687 193.393 20.7705L193.415 27.6335L188.959 27.629L188.968 9.23723L193.37 9.24049L193.347 11.9426C194.586 10.0126 195.386 9.34918 197.704 8.89227Z" fill="black"/>
<path d="M151.13 3.77563L155.599 3.78497L155.608 9.234L159.45 9.23119L159.451 12.7956L155.598 12.782C155.619 15.8589 155.548 18.9336 155.614 22.01C155.664 24.4165 157.673 24.1501 159.462 23.9478L159.445 26.8804C159.456 27.1782 159.486 27.2142 159.367 27.4783C158.913 27.7391 158.415 27.8054 157.893 27.8167C150.807 27.9639 151.124 24.9257 151.131 19.2644L151.136 12.7955L148.097 12.7861L148.082 9.22534L151.137 9.23546L151.13 3.77563Z" fill="black"/>
<path fill-rule="evenodd" clip-rule="evenodd" d="M185.194 36.6677C187.231 36.5564 188.177 36.9708 189.46 38.4958L189.448 36.8552L191.218 36.8493C191.186 39.3075 191.224 41.7402 191.215 44.2321C191.253 46.878 191.605 51.1601 188.17 51.9391C184.997 52.6574 182.196 51.9642 181.282 48.5632L182.885 48.5739C182.942 48.5706 183.11 48.6094 183.175 48.6218C183.868 50.1198 184.378 50.6534 186.121 50.6432C189.431 50.6262 189.476 48.3378 189.461 45.8268C188.766 46.7553 187.882 47.6635 186.676 47.8366C180.125 48.7727 178.535 37.9155 185.194 36.6677ZM185.484 38.2321C181.399 39.382 181.842 46.6969 186.802 46.2429C190.884 44.8716 190.304 37.9174 185.484 38.2321Z" fill="black"/>
<path d="M68.3354 38.4866C69.1758 37.5133 70.016 36.8616 71.3423 36.6604C72.5473 36.4784 73.7748 36.7865 74.7515 37.5159C77.5149 39.5841 77.4741 44.0026 75.5327 46.6272C75.4111 46.753 75.2861 46.8744 75.1577 46.9934C72.9914 48.9616 70.1528 48.2692 68.3354 46.219L68.2915 47.8723L66.5347 47.8831L66.5356 32.8323L68.3481 32.8215L68.3354 38.4866ZM71.4468 38.2307C66.9605 39.049 67.2485 46.4369 71.9927 46.5071C74.8449 46.0159 75.3548 43.5425 74.8892 41.0022C74.5646 39.2321 73.2585 38.2129 71.4468 38.2307Z" fill="black"/>
<path d="M131.223 38.5164C132.2 37.1799 133.022 36.6258 134.721 36.5921C136.449 36.4493 138.238 37.7419 138.44 39.5539C138.728 42.1503 138.59 45.2212 138.576 47.8705L135.857 47.8716C135.839 46.2103 136.233 40.561 135.331 39.4729C134.983 39.0548 134.467 38.8929 133.939 38.857C133.432 38.8221 132.951 38.9649 132.582 39.3234C131.254 40.6161 131.663 43.7689 131.673 45.4662L131.679 47.8727L128.928 47.8615C128.919 46.1159 129.364 40.588 128.312 39.3909C127.983 39.0166 127.532 38.8401 127.038 38.8412C126.463 38.8424 125.927 39.0526 125.534 39.4763C124.262 40.8465 124.738 45.9855 124.752 47.8829L122.032 47.8885V36.8652L124.647 36.8663L124.642 38.3298C125.451 37.326 125.801 37.0439 127.023 36.6674C129.064 36.5055 130.064 36.7809 131.223 38.5164Z" fill="black"/>
<path fill-rule="evenodd" clip-rule="evenodd" d="M167.22 36.6614C168.423 36.5827 169.875 36.6812 170.84 37.4309C174.755 40.4748 173.972 46.9439 168.831 48.0657C167.518 48.1455 166.435 48.0802 165.276 47.388C161.743 45.2759 161.89 38.8393 165.724 37.1038C166.233 36.8734 166.685 36.7749 167.22 36.6614ZM167.256 38.2376C163.054 39.7269 163.772 46.9062 168.707 46.4622C171.291 45.682 171.908 43.0043 171.169 40.6057C170.586 38.7076 169.147 38.0927 167.256 38.2376Z" fill="black"/>
<path fill-rule="evenodd" clip-rule="evenodd" d="M114.158 36.6663C120.62 36.2144 120.324 38.8612 120.178 44.1497C120.166 44.5757 120.157 45.2346 120.332 45.6224C121.31 46.2224 121.087 46.8697 121.055 47.9202C119.449 48.0056 118.451 48.1991 117.727 46.5423C115.949 48.4183 113.259 48.7155 111.174 47.1497C110.256 46.0796 109.962 44.563 110.65 43.2884C111.834 41.1923 114.714 41.671 116.641 41.0696C118.235 40.5716 117.42 38.8182 116.12 38.5618C114.576 38.2572 113.661 38.7048 113.358 40.2737C112.595 40.2614 111.601 40.3539 110.883 40.2268L110.783 40.0472C110.893 37.8543 112.155 37.1024 114.158 36.6663ZM117.444 42.6263C116.053 43.1174 111.125 43.3557 113.596 45.9173C115.997 46.8782 117.861 45.3008 117.519 42.7181L117.444 42.6263Z" fill="black"/>
<path fill-rule="evenodd" clip-rule="evenodd" d="M144.301 36.6587C149.011 36.2384 150.695 38.9019 150.712 43.1753C147.957 43.1921 145.221 43.1458 142.459 43.1919C143.186 45.9806 145.811 47.5183 147.74 44.6206C147.891 44.3952 148.404 44.4796 148.638 44.4819L150.551 44.5161C149.861 46.3571 149.013 47.3902 147.048 47.9253C139.356 50.0171 136.745 38.2773 144.301 36.6587ZM148.032 41.2436C147.398 39.2923 146.747 38.4421 144.527 38.686C143.182 39.2637 142.841 39.8337 142.501 41.2475L145.932 41.2485L148.032 41.2436Z" fill="black"/>
<path d="M141.744 9.23132H146.354L146.357 27.6245L141.745 27.6301L141.744 9.23132Z" fill="black"/>
<path d="M161.548 9.24059L166.13 9.23474L166.138 27.6358L161.545 27.6268L161.548 9.24059Z" fill="black"/>
<path d="M92.3166 32.8883L102.676 32.8816L102.669 35.2758L95.1653 35.2791L95.1563 39.1008L102.137 39.0963L102.144 40.2001C102.155 40.625 102.224 41.214 101.954 41.513C100.557 41.6861 96.7288 41.5703 95.1555 41.5624L95.1575 47.8839L92.3071 47.8918L92.3166 32.8883Z" fill="black"/>
<path fill-rule="evenodd" clip-rule="evenodd" d="M197.118 36.6674C201.52 36.4224 202.964 38.8376 203.021 42.9018L194.62 42.9067C194.711 43.445 194.802 44.0595 195.044 44.5473C196.192 46.8572 199.141 47.3869 200.695 45.1703C200.8 44.8616 200.783 44.8456 200.989 44.601C201.324 44.4639 201.354 44.4493 201.736 44.4594L202.872 44.4868C202.307 46.1469 201.528 47.3784 199.724 47.8842C193.978 49.4967 191.241 43.1942 193.741 38.8129C194.477 37.5217 195.709 36.9552 197.118 36.6674ZM201.159 41.3705C200.635 38.973 199.766 37.9606 197.161 38.227C195.472 38.8553 194.997 39.6346 194.623 41.3813L198.737 41.3793L201.159 41.3705Z" fill="black"/>
<path d="M152.329 32.8467C155.607 32.877 158.884 32.8793 162.162 32.8546L162.154 34.5406L154.273 34.5417C154.252 36.1322 154.265 37.7474 154.264 39.3413C156.025 39.3447 159.924 39.2109 161.471 39.3829C161.683 39.647 161.614 39.6987 161.646 40.1101C161.648 40.508 161.664 40.5856 161.543 40.9779C160.797 41.1408 155.345 41.0588 154.266 41.0565L154.265 47.8546L152.356 47.8479L152.329 32.8467Z" fill="black"/>
<path d="M77.0483 36.8776L79.0204 36.8765L82.2331 45.8945C83.0243 43.162 84.3707 39.6045 85.3217 36.8832L87.2155 36.8787C86.453 39.0998 85.5406 41.4613 84.7281 43.6757C84.0421 45.4977 83.4459 47.3748 82.7453 49.1912C81.7432 51.7911 80.4864 52.0923 77.9789 52.0294L77.9804 50.4299C80.2843 50.4872 80.5277 50.0837 81.2094 47.9009C79.7889 44.4681 78.3804 40.4104 77.0483 36.8776Z" fill="black"/>
<path d="M108.435 36.7775C109.029 36.6965 109.593 36.6965 110.191 36.6797L110.189 39.1829C105.713 38.9412 106.439 41.9806 106.422 45.2301C106.417 46.1057 106.427 46.996 106.427 47.8693L103.663 47.8716C103.581 46.8611 103.631 45.039 103.632 43.9791L103.64 36.8629L106.265 36.8741L106.283 38.7378C106.957 37.5946 107.225 37.2912 108.435 36.7775Z" fill="black"/>
<path d="M179.625 36.6739C179.983 36.6739 180.2 36.6391 180.517 36.8055C180.814 37.1753 180.702 37.9407 180.686 38.4555C179.563 38.4184 178.585 38.4319 177.717 39.2412C176.846 40.0629 176.648 41.3296 176.66 42.4739C176.678 44.2723 176.688 46.0685 176.69 47.8669C176.153 47.8816 175.469 47.9479 174.974 47.8018L174.886 47.5556L174.877 36.8515L176.653 36.8549C176.655 37.427 176.661 37.998 176.67 38.5702C177.548 37.3776 178.183 36.9235 179.625 36.6739Z" fill="black"/>
<path d="M141.632 2.271L146.457 2.28111L146.456 6.80294L141.634 6.80541L141.632 2.271Z" fill="black"/>
<path d="M161.433 2.28101C163.028 2.29888 164.647 2.28527 166.245 2.2864L166.248 6.80778H161.433C161.453 5.29889 161.452 3.78989 161.433 2.28101Z" fill="black"/>
<path d="M204.325 44.4591L208 44.449L207.988 48.0481L204.32 48.0717L204.325 44.4591Z" fill="black"/>
</svg>
