<svg width="208" height="55" viewBox="0 0 208 55" fill="none" xmlns="http://www.w3.org/2000/svg">
<path fill-rule="evenodd" clip-rule="evenodd" d="M4.94572 0.0167385L9.88615 0.0196681H25.267L34.474 0.017715L37.3432 0.0157619C37.7977 0.0156757 38.5905 -0.00336755 39.0219 0.0421291C39.485 0.0915308 39.9188 0.293812 40.2543 0.616348C40.4905 0.844151 40.7859 1.32042 40.81 1.63295C40.899 2.79829 40.8528 4.17748 40.852 5.34877L40.851 13.6251L48.6781 13.6212L51.1371 13.6154C51.9156 13.6132 52.8989 13.5169 53.5619 13.965C54.0125 14.2656 54.321 14.7379 54.4135 15.2716C54.4734 15.6119 54.4555 16.3486 54.4555 16.7208L54.4545 19.0548V27.4767L54.4526 44.1671L54.4555 49.3976C54.4576 50.3887 54.4708 51.3805 54.4477 52.3712C54.4216 53.4862 53.6841 54.2632 52.5893 54.3976C51.2171 54.4626 49.5133 54.4156 48.1186 54.4152H39.8813L16.2367 54.4191C15.3806 54.4161 14.8193 54.4229 14.1752 53.7706C13.4687 53.0555 13.59 52.1087 13.5912 51.1779L13.5942 48.8898L13.6 40.8507H5.8383C4.75363 40.8516 3.667 40.8616 2.58341 40.8488C1.91645 40.8411 1.39185 40.8137 0.831459 40.4191C-0.149313 39.7287 0.00882231 38.6835 0.0101703 37.6466L0.0140766 35.0275L0.0150531 25.6818L0.0140766 9.81459V4.65932C0.0138626 3.78845 -0.0105148 2.90764 0.0170062 2.03822C0.0539866 0.875129 0.815934 0.191766 1.92228 0.0343166C2.87342 -0.0300084 3.98536 0.0156189 4.94572 0.0167385ZM18.3334 13.6652C17.5486 13.6646 16.2014 13.6251 15.4496 13.6837C14.463 13.8717 13.7256 14.4851 13.684 15.5499C13.6482 16.4692 13.6667 17.4022 13.6674 18.3224L13.6693 23.507L13.6635 40.7638L31.2182 40.7658L36.3871 40.7677C37.0016 40.7681 38.5738 40.803 39.1352 40.7247C40.0648 40.5899 40.7574 39.8074 40.7865 38.8693C40.8148 37.9551 40.8036 37.0412 40.8031 36.1261L40.8012 30.9581L40.8051 13.671L23.8471 13.6671L18.3334 13.6652Z" fill="white"/>
<path d="M30.2302 29.4086C28.343 31.0552 27.5165 33.194 27.2178 35.6107C27.0697 34.8837 26.982 34.1811 26.7755 33.515C26.5654 32.8375 26.3034 32.1579 25.944 31.5493C25.5844 30.9402 25.1279 30.3649 24.6184 29.8722C24.1166 29.3867 23.5274 28.967 22.9171 28.6221C22.2981 28.2723 21.6228 27.998 20.9421 27.7854C20.2637 27.5735 19.548 27.4794 18.8325 27.3302C19.1858 27.2818 19.5377 27.2443 19.8857 27.1842C23.721 26.5216 26.024 24.2411 26.957 20.537C27.1022 19.9604 27.1594 19.3619 27.2475 18.8328C27.6477 23.923 30.5818 26.6379 35.6105 27.3646C33.6263 27.5391 31.7931 28.0965 30.2302 29.4086Z" fill="white"/>
<path d="M125.981 2.24463L125.976 11.561C127.15 10.0068 128.426 9.1347 130.397 8.85986C135.349 8.1696 138.955 12.0162 139.404 16.7358C139.743 20.3011 139.285 22.8839 137.056 25.7017C136.71 26.0827 136.325 26.4267 135.91 26.729C133.804 28.2341 130.781 28.488 128.433 27.3921C127.206 26.82 126.531 25.9958 125.774 24.937L125.778 27.6265L121.514 27.6255L121.502 2.23682L125.981 2.24463ZM129.892 12.6108C129.359 12.7166 128.863 12.8337 128.372 13.0962C125.04 14.8807 125.055 21.5522 128.117 23.5669C129.105 24.2176 129.912 24.275 131.051 24.2739C132.226 24.0221 133.327 23.4941 133.915 22.4038C135.903 18.7163 135.253 12.384 129.892 12.6108Z" fill="#FCFCFB"/>
<path d="M75.2681 2.24463C77.1208 2.28228 79.0308 2.26338 80.8882 2.26709L90.3608 27.6392L85.4429 27.6401L83.2827 21.7993H81.3862L72.8394 21.8032L70.7964 27.6313H65.9985L75.2681 2.24463ZM74.2612 17.7388H78.3511L81.9028 17.7339C81.4825 16.5343 78.2767 7.10985 78.0122 6.80615L74.2612 17.7388Z" fill="#FCFCFB"/>
<path d="M99.9951 8.89667C103.051 8.5625 104.974 9.24163 106.594 11.9782C106.918 11.5149 107.243 11.0361 107.632 10.6515C110.896 7.43061 117.464 8.42593 118.328 13.4524C118.704 15.6377 118.591 17.5099 118.59 19.6303L118.592 27.6235L114.156 27.6224C114.117 24.1492 114.193 20.6704 114.158 17.1893C114.191 15.0093 113.644 12.6443 110.959 12.6702C107.069 12.7079 107.313 17.3039 107.317 19.9368L107.329 23.9581L107.322 27.6213L102.917 27.628C102.871 25.0776 102.956 22.5418 102.919 19.9648C102.894 18.21 103.198 14.962 101.989 13.5489C100.839 12.3363 98.5271 12.3544 97.4292 13.58C95.7345 15.4717 96.0775 18.3215 96.082 20.6923L96.1021 27.6292L91.6865 27.6258L91.6888 9.23612L96.0432 9.2359L96.0378 11.6449C97.1251 9.99057 98.1054 9.35527 99.9951 8.89667Z" fill="#FCFCFB"/>
<path fill-rule="evenodd" clip-rule="evenodd" d="M177.299 8.91554C182.55 8.77095 186.927 12.9063 187.08 18.1577C187.232 23.4085 183.103 27.7918 177.853 27.9536C172.59 28.1152 168.194 23.9755 168.041 18.7124C167.887 13.4491 172.035 9.06054 177.299 8.91554ZM181.336 22.0298C183.241 18.2221 182.159 12.3294 176.9 12.605C173.079 13.4234 172.46 17.2063 173.155 20.5103C173.691 23.0588 175.683 24.4938 178.284 24.2388C179.57 23.9016 180.724 23.252 181.336 22.0298Z" fill="#FCFCFB"/>
<path d="M197.705 8.89239C202.287 8.43862 205.141 10.6253 205.328 15.3894C205.383 16.7897 205.348 18.2016 205.347 19.6041L205.344 27.6303L200.852 27.6314L200.868 20.1735C200.871 17.4821 201.52 13.1566 198.065 12.7246C196.807 12.5674 196.044 12.8135 195.012 13.4932C193.015 15.3692 193.389 18.2689 193.394 20.7706L193.416 27.6337L188.96 27.6292L188.969 9.23735L193.371 9.24061L193.348 11.9428C194.587 10.0127 195.387 9.3493 197.705 8.89239Z" fill="#FCFCFB"/>
<path d="M151.131 3.77576L155.6 3.78509L155.609 9.23412L159.451 9.23131L159.452 12.7957L155.599 12.7821C155.62 15.859 155.549 18.9338 155.615 22.0101C155.665 24.4166 157.674 24.1502 159.463 23.9479L159.446 26.8805C159.456 27.1783 159.487 27.2143 159.368 27.4785C158.914 27.7392 158.416 27.8055 157.894 27.8168C150.808 27.964 151.125 24.9258 151.132 19.2646L151.136 12.7956L148.098 12.7863L148.083 9.22547L151.138 9.23559L151.131 3.77576Z" fill="#FCFCFB"/>
<path fill-rule="evenodd" clip-rule="evenodd" d="M185.196 36.6671C187.232 36.5559 188.178 36.971 189.461 38.4962L189.449 36.8556L191.219 36.8498C191.188 39.3079 191.225 41.7407 191.216 44.2326C191.254 46.8785 191.606 51.1605 188.171 51.9396C184.998 52.6579 182.196 51.9639 181.283 48.5627L182.886 48.5744C182.944 48.5712 183.111 48.6089 183.176 48.6212C183.87 50.1195 184.378 50.6538 186.121 50.6437C189.432 50.6269 189.477 48.3383 189.462 45.8273C188.768 46.7557 187.883 47.6639 186.677 47.8371C180.126 48.7734 178.536 37.9148 185.196 36.6671ZM185.485 38.2316C181.4 39.3815 181.843 46.6974 186.803 46.2433C190.885 44.872 190.305 37.9173 185.485 38.2316Z" fill="#FCFCFB"/>
<path d="M68.3364 38.4868C69.1768 37.5136 70.0169 36.8618 71.3433 36.6606C72.5483 36.4787 73.7758 36.7867 74.7524 37.5161C77.5158 39.5843 77.4751 44.0028 75.5337 46.6274C75.4121 46.7532 75.2871 46.8746 75.1587 46.9937C72.9924 48.9618 70.1537 48.2695 68.3364 46.2192L68.2925 47.8726L66.5356 47.8833L66.5366 32.8325L68.3491 32.8218L68.3364 38.4868ZM71.4478 38.231C66.9615 39.0492 67.2495 46.4372 71.9937 46.5073C74.8459 46.0161 75.3558 43.5427 74.8901 41.0024C74.5656 39.2324 73.2595 38.2131 71.4478 38.231Z" fill="#FCFCFB"/>
<path d="M131.224 38.5164C132.201 37.1799 133.023 36.6258 134.722 36.5921C136.45 36.4493 138.239 37.7419 138.441 39.5539C138.729 42.1503 138.591 45.2212 138.577 47.8705L135.858 47.8716C135.84 46.2103 136.234 40.561 135.332 39.4729C134.984 39.0548 134.468 38.8929 133.94 38.857C133.433 38.8221 132.952 38.9649 132.583 39.3234C131.255 40.6161 131.664 43.7689 131.674 45.4662L131.68 47.8727L128.929 47.8615C128.92 46.1159 129.365 40.588 128.313 39.3909C127.984 39.0166 127.533 38.8401 127.038 38.8412C126.464 38.8424 125.928 39.0526 125.535 39.4763C124.263 40.8465 124.739 45.9855 124.753 47.8829L122.033 47.8885V36.8652L124.648 36.8663L124.643 38.3298C125.452 37.326 125.802 37.0439 127.024 36.6674C129.065 36.5055 130.065 36.7809 131.224 38.5164Z" fill="#FCFCFB"/>
<path fill-rule="evenodd" clip-rule="evenodd" d="M167.221 36.6617C168.424 36.583 169.876 36.6815 170.841 37.4312C174.756 40.4751 173.973 46.9442 168.831 48.066C167.519 48.1457 166.436 48.0805 165.277 47.3882C161.744 45.2762 161.891 38.8396 165.725 37.104C166.234 36.8736 166.686 36.7752 167.221 36.6617ZM167.257 38.2378C163.055 39.7272 163.773 46.9064 168.708 46.4624C171.292 45.6822 171.909 43.0046 171.17 40.606C170.587 38.7078 169.148 38.0929 167.257 38.2378Z" fill="#FCFCFB"/>
<path fill-rule="evenodd" clip-rule="evenodd" d="M114.159 36.6665C120.621 36.2147 120.325 38.8614 120.179 44.1499C120.167 44.5759 120.157 45.2348 120.333 45.6226C121.311 46.2227 121.088 46.8699 121.056 47.9204C119.45 48.0059 118.452 48.1993 117.728 46.5425C115.95 48.4185 113.26 48.7157 111.175 47.1499C110.257 46.0799 109.963 44.5632 110.651 43.2886C111.835 41.1925 114.715 41.6712 116.642 41.0699C118.236 40.5719 117.421 38.8184 116.121 38.562C114.577 38.2575 113.662 38.7051 113.359 40.274C112.596 40.2616 111.602 40.3541 110.884 40.2271L110.784 40.0474C110.894 37.8546 112.156 37.1027 114.159 36.6665ZM117.445 42.6265C116.054 43.1177 111.126 43.356 113.597 45.9175C115.998 46.8785 117.862 45.301 117.52 42.7183L117.445 42.6265Z" fill="#FCFCFB"/>
<path fill-rule="evenodd" clip-rule="evenodd" d="M144.302 36.6582C149.012 36.2379 150.696 38.9023 150.713 43.1757C147.958 43.1926 145.222 43.1463 142.46 43.1923C143.187 45.981 145.812 47.5188 147.741 44.6211C147.892 44.3953 148.405 44.4791 148.639 44.4814L150.552 44.5166C149.862 46.3575 149.014 47.3907 147.049 47.9257C139.357 50.0176 136.746 38.2768 144.302 36.6582ZM148.033 41.2431C147.399 39.2919 146.748 38.4426 144.528 38.6865C143.183 39.2642 142.842 39.8341 142.502 41.248L145.933 41.249L148.033 41.2431Z" fill="#FCFCFB"/>
<path d="M141.745 9.23145H146.355L146.358 27.6246L141.746 27.6302L141.745 9.23145Z" fill="#FCFCFB"/>
<path d="M161.549 9.24071L166.131 9.23486L166.139 27.6359L161.546 27.6269L161.549 9.24071Z" fill="#FCFCFB"/>
<path d="M92.3176 32.8885L102.677 32.8817L102.67 35.2759L95.1663 35.2792L95.1573 39.1009L102.138 39.0964L102.145 40.2002C102.156 40.6251 102.225 41.2141 101.955 41.5131C100.558 41.6862 96.7298 41.5704 95.1565 41.5625L95.1585 47.884L92.3081 47.8919L92.3176 32.8885Z" fill="#FCFCFB"/>
<path fill-rule="evenodd" clip-rule="evenodd" d="M197.119 36.667C201.521 36.422 202.965 38.8379 203.022 42.9024L194.621 42.9073C194.712 43.4456 194.803 44.0602 195.045 44.5479C196.193 46.8577 199.142 47.3874 200.696 45.171C200.801 44.8619 200.784 44.8456 200.99 44.6006C201.325 44.4635 201.355 44.4489 201.737 44.459L202.873 44.4874C202.308 46.1474 201.529 47.3781 199.725 47.8838C193.979 49.4964 191.242 43.1949 193.742 38.8135C194.478 37.5221 195.71 36.9548 197.119 36.667ZM201.16 41.3702C200.636 38.9728 199.767 37.9612 197.162 38.2276C195.473 38.8559 194.998 39.6352 194.624 41.3819L198.738 41.379L201.16 41.3702Z" fill="#FCFCFB"/>
<path d="M152.33 32.8469C155.608 32.8773 158.885 32.8795 162.163 32.8548L162.155 34.5408L154.274 34.542C154.253 36.1324 154.266 37.7477 154.265 39.3415C156.026 39.3449 159.925 39.2111 161.472 39.3831C161.684 39.6473 161.615 39.699 161.647 40.1104C161.649 40.5083 161.665 40.5858 161.544 40.9781C160.798 41.1411 155.346 41.059 154.267 41.0568L154.266 47.8549L152.357 47.8481L152.33 32.8469Z" fill="#FCFCFB"/>
<path d="M77.0493 36.8776L79.0214 36.8765L82.2341 45.8945C83.0253 43.162 84.3716 39.6045 85.3227 36.8832L87.2164 36.8787C86.454 39.0998 85.5415 41.4613 84.7291 43.6757C84.0431 45.4977 83.4469 47.3748 82.7463 49.1912C81.7441 51.7911 80.4874 52.0923 77.9799 52.0294L77.9814 50.4299C80.2853 50.4872 80.5287 50.0837 81.2103 47.9009C79.7899 44.4681 78.3814 40.4104 77.0493 36.8776Z" fill="#FCFCFB"/>
<path d="M108.436 36.7776C109.03 36.6967 109.594 36.6967 110.192 36.6798L110.19 39.183C105.714 38.9413 106.44 41.9807 106.423 45.2302C106.418 46.1059 106.428 46.9961 106.428 47.8694L103.664 47.8717C103.582 46.8612 103.632 45.0392 103.633 43.9792L103.641 36.863L106.266 36.8743L106.284 38.7379C106.958 37.5948 107.226 37.2913 108.436 36.7776Z" fill="#FCFCFB"/>
<path d="M179.626 36.6742C179.984 36.6742 180.201 36.6393 180.518 36.8057C180.815 37.1755 180.703 37.9409 180.687 38.4558C179.564 38.4187 178.586 38.4321 177.718 39.2414C176.847 40.0631 176.649 41.3299 176.661 42.4741C176.679 44.2726 176.689 46.0688 176.691 47.8672C176.154 47.8818 175.47 47.9481 174.975 47.802L174.887 47.5558L174.878 36.8518L176.654 36.8551C176.656 37.4273 176.662 37.9983 176.671 38.5704C177.549 37.3778 178.184 36.9237 179.626 36.6742Z" fill="#FCFCFB"/>
<path d="M141.633 2.27112L146.458 2.28123L146.457 6.80306L141.635 6.80554L141.633 2.27112Z" fill="#FCFCFB"/>
<path d="M161.434 2.28113C163.029 2.299 164.648 2.2854 166.246 2.28652L166.249 6.8079H161.434C161.454 5.29902 161.453 3.79002 161.434 2.28113Z" fill="#FCFCFB"/>
<path d="M204.326 44.4591L208.001 44.449L207.988 48.0481L204.321 48.0717L204.326 44.4591Z" fill="#FCFCFB"/>
</svg>
