<svg width="45" height="45" viewBox="0 0 45 45" fill="none" xmlns="http://www.w3.org/2000/svg">
<circle cx="22.5" cy="22.5" r="22" fill="white" stroke="#929292"/>
<path d="M32.6489 29.875C31.2211 27.4065 29.0208 25.6365 26.4529 24.7975C27.7231 24.0414 28.7099 22.8892 29.2619 21.5179C29.8139 20.1467 29.9004 18.6321 29.5083 17.2069C29.1162 15.7817 28.2671 14.5245 27.0914 13.6286C25.9156 12.7327 24.4783 12.2474 23.0001 12.2474C21.5219 12.2474 20.0846 12.7327 18.9089 13.6286C17.7332 14.5245 16.8841 15.7817 16.492 17.2069C16.0998 18.6321 16.1864 20.1467 16.7384 21.5179C17.2903 22.8892 18.2772 24.0414 19.5473 24.7975C16.9795 25.6356 14.7792 27.4056 13.3514 29.875C13.299 29.9604 13.2643 30.0554 13.2492 30.1544C13.2342 30.2534 13.2391 30.3544 13.2637 30.4515C13.2884 30.5486 13.3322 30.6397 13.3926 30.7196C13.4531 30.7995 13.5289 30.8664 13.6156 30.9165C13.7023 30.9666 13.7982 30.9988 13.8976 31.0113C13.997 31.0237 14.0978 31.0161 14.1942 30.989C14.2906 30.9618 14.3806 30.9156 14.4588 30.8531C14.5371 30.7906 14.602 30.713 14.6498 30.625C16.4161 27.5725 19.5379 25.75 23.0001 25.75C26.4623 25.75 29.5842 27.5725 31.3504 30.625C31.3982 30.713 31.4632 30.7906 31.5414 30.8531C31.6197 30.9156 31.7097 30.9618 31.806 30.989C31.9024 31.0161 32.0033 31.0237 32.1027 31.0113C32.2021 30.9988 32.2979 30.9666 32.3847 30.9165C32.4714 30.8664 32.5472 30.7995 32.6076 30.7196C32.6681 30.6397 32.7119 30.5486 32.7365 30.4515C32.7611 30.3544 32.7661 30.2534 32.751 30.1544C32.736 30.0554 32.7012 29.9604 32.6489 29.875ZM17.7501 19C17.7501 17.9616 18.058 16.9466 18.6349 16.0832C19.2118 15.2199 20.0317 14.547 20.991 14.1496C21.9504 13.7523 23.006 13.6483 24.0244 13.8509C25.0428 14.0534 25.9782 14.5535 26.7124 15.2877C27.4467 16.0219 27.9467 16.9574 28.1493 17.9758C28.3518 18.9942 28.2479 20.0498 27.8505 21.0091C27.4531 21.9684 26.7802 22.7883 25.9169 23.3652C25.0535 23.9421 24.0385 24.25 23.0001 24.25C21.6082 24.2485 20.2737 23.6949 19.2895 22.7107C18.3052 21.7264 17.7516 20.3919 17.7501 19Z" fill="#888888"/>
</svg>
