<svg width="179" height="48" viewBox="0 0 179 48" fill="none" xmlns="http://www.w3.org/2000/svg">
<path d="M0.592107 3.5122C-0.20717 2.69873 -0.195662 1.39133 0.617812 0.592061C1.43128 -0.207217 2.73868 -0.195707 3.53795 0.617764L2.06503 2.06498L0.592107 3.5122ZM176.992 19.0177C178.051 19.4398 178.568 20.6409 178.146 21.7003L171.267 38.9647C170.845 40.0241 169.644 40.5408 168.584 40.1186C167.525 39.6965 167.008 38.4955 167.43 37.436L173.545 22.0899L158.199 15.9753C157.139 15.5531 156.623 14.3521 157.045 13.2927C157.467 12.2332 158.668 11.7166 159.727 12.1387L176.992 19.0177ZM2.06503 2.06498L3.53795 0.617764C30.7738 28.3374 54.0526 41.2124 80.1361 43.1639C106.364 45.1262 135.783 36.0857 175.412 19.0391L176.227 20.936L177.043 22.8329C137.387 39.8914 107.148 49.3263 79.828 47.2822C52.3635 45.2274 28.2038 31.6143 0.592107 3.5122L2.06503 2.06498Z" fill="black"/>
</svg>
