<svg width="177" height="54" viewBox="0 0 177 54" fill="none" xmlns="http://www.w3.org/2000/svg">
<path d="M0.494653 50.2528C-0.245931 51.1201 -0.143252 52.4235 0.723994 53.164C1.59124 53.9046 2.89464 53.8019 3.63523 52.9347L2.06494 51.5938L0.494653 50.2528ZM175.383 22.48C176.41 21.985 176.842 20.7509 176.347 19.7235L168.281 2.98101C167.786 1.95361 166.551 1.52202 165.524 2.01702C164.497 2.51202 164.065 3.74617 164.56 4.77357L171.73 19.6558L156.848 26.826C155.821 27.321 155.389 28.5552 155.884 29.5826C156.379 30.61 157.613 31.0416 158.641 30.5466L175.383 22.48ZM2.06494 51.5938L3.63523 52.9347C28.8711 23.3827 51.1951 8.91524 77.0789 5.149C103.106 1.36194 133.084 8.32822 173.805 22.569L174.487 20.6198L175.168 18.6706C134.418 4.41994 103.595 -2.88267 76.4842 1.06217C49.23 5.02782 26.0788 20.293 0.494653 50.2528L2.06494 51.5938Z" fill="black"/>
</svg>
