<svg width="41" height="41" viewBox="0 0 41 41" fill="none" xmlns="http://www.w3.org/2000/svg">
<path d="M29.4295 22.7241L24.409 20.2138C24.2114 20.1153 23.9913 20.0707 23.7709 20.0845C23.5505 20.0983 23.3377 20.1699 23.1539 20.2923L20.8491 21.8298C19.7911 21.2482 18.9205 20.3775 18.3389 19.3195L19.8764 17.0148C19.9987 16.831 20.0704 16.6182 20.0842 16.3978C20.0979 16.1774 20.0533 15.9573 19.9549 15.7597L17.4446 10.7392C17.3406 10.5291 17.1797 10.3523 16.9804 10.2289C16.781 10.1055 16.551 10.0404 16.3166 10.041C14.6522 10.041 13.0559 10.7022 11.879 11.8791C10.7021 13.056 10.0409 14.6523 10.0409 16.3167C10.0451 19.9771 11.501 23.4864 14.0893 26.0747C16.6776 28.663 20.1869 30.1189 23.8473 30.1231C24.6714 30.1231 25.4875 29.9607 26.2489 29.6453C27.0103 29.33 27.7021 28.8677 28.2849 28.285C28.8676 27.7022 29.3299 27.0104 29.6453 26.249C29.9606 25.4876 30.123 24.6715 30.123 23.8474C30.1231 23.6142 30.0583 23.3856 29.9358 23.1872C29.8134 22.9888 29.638 22.8284 29.4295 22.7241ZM23.8473 27.6128C20.8524 27.6095 17.9811 26.4183 15.8634 24.3006C13.7457 22.1828 12.5545 19.3116 12.5512 16.3167C12.5509 15.4461 12.8523 14.6023 13.4041 13.929C13.9559 13.2556 14.724 12.7943 15.5776 12.6234L17.3787 16.2319L15.8459 18.5131C15.7313 18.6849 15.661 18.8824 15.641 19.0879C15.621 19.2934 15.652 19.5007 15.7313 19.6914C16.6294 21.8257 18.3273 23.5236 20.4616 24.4216C20.6529 24.5045 20.8617 24.5384 21.0693 24.5203C21.2769 24.5022 21.4768 24.4327 21.6508 24.3181L23.943 22.79L27.5515 24.5911C27.3793 25.4457 26.916 26.2141 26.2404 26.7652C25.5649 27.3162 24.7191 27.6158 23.8473 27.6128ZM20.0819 3.76538C17.2649 3.76477 14.4957 4.49349 12.0439 5.88063C9.59203 7.26777 7.54109 9.26606 6.09067 11.681C4.64026 14.0959 3.83977 16.8453 3.76714 19.6613C3.69451 22.4774 4.35221 25.2644 5.67621 27.7509L3.8955 33.093C3.748 33.5353 3.72659 34.0099 3.83368 34.4637C3.94077 34.9175 4.17212 35.3325 4.50181 35.6622C4.83149 35.9918 5.24648 36.2232 5.70026 36.3303C6.15404 36.4374 6.62867 36.416 7.07097 36.2685L12.4131 34.4878C14.6014 35.6517 17.026 36.3017 19.5031 36.3886C21.9801 36.4756 24.4443 35.997 26.7088 34.9894C28.9733 33.9817 30.9784 32.4714 32.572 30.5731C34.1657 28.6749 35.3059 26.4384 35.9062 24.0337C36.5064 21.6289 36.551 19.119 36.0364 16.6945C35.5218 14.27 34.4616 11.9945 32.9364 10.0409C31.4111 8.08725 29.4608 6.50677 27.2335 5.41941C25.0062 4.33205 22.5605 3.7664 20.0819 3.76538ZM20.0819 33.8884C17.6548 33.8901 15.2702 33.2509 13.1693 32.0356C13.0155 31.9463 12.8445 31.8908 12.6676 31.8727C12.4907 31.8546 12.312 31.8743 12.1433 31.9304L6.27554 33.8884L8.23197 28.0207C8.28836 27.8521 8.30829 27.6734 8.29044 27.4966C8.27259 27.3197 8.21736 27.1486 8.12842 26.9946C6.60653 24.3634 5.9955 21.3036 6.39011 18.2897C6.78472 15.2757 8.16292 12.4763 10.3109 10.3256C12.4589 8.17491 15.2566 6.79317 18.27 6.39475C21.2834 5.99633 24.3441 6.6035 26.9772 8.12206C29.6103 9.64062 31.6687 11.9857 32.833 14.7935C33.9974 17.6013 34.2026 20.7148 33.4168 23.6511C32.631 26.5874 30.8982 29.1824 28.4871 31.0334C26.0761 32.8843 23.1216 33.8879 20.0819 33.8884Z" fill="white"/>
</svg>
